<svg xmlns="http://www.w3.org/2000/svg" width="55.958" height="29.874" viewBox="0 0 55.958 29.874"><g fill="#fff"><path d="M37.464 1.231a126.15 126.15 0 00-35.164 0 .769.769 0 00-.64.569 52.787 52.787 0 000 26.265.769.769 0 00.641.573 127.347 127.347 0 0017.584 1.232 127.256 127.256 0 0017.58-1.232.769.769 0 00.641-.573A52.808 52.808 0 0038.1 1.8a.769.769 0 00-.636-.569z"/><path data-name="Shape" d="M55.539 1.246a.777.777 0 00-.8.06l-12.344 8.816a.763.763 0 00-.317.7 42.43 42.43 0 01-.004 8.24.762.762 0 00.317.695l12.341 8.816a.777.777 0 00.8.06.765.765 0 00.42-.681V1.927a.764.764 0 00-.413-.681z"/></g></svg>