<svg xmlns="http://www.w3.org/2000/svg" width="55" height="55" viewBox="0 0 55 55"><path d="M53.226 55H0v-1.774h1.774V37.258h1.775v-1.774H1.774v-1.775h1.775v-3.547h7.984a4.442 4.442 0 014.345 3.548h1.864v1.775h-1.774v1.774h1.774v15.967h15.967V37.258h1.775v-5.322h2.661V21.811a6.164 6.164 0 01-.887-3.181c0-.212.011-.419.031-.626L32.3 12.393a6.122 6.122 0 01-.82-.123l-7.8 7.2a4.63 4.63 0 01-5.884.357l-4.749 4.749-1.255-1.255 4.777-4.777a4.659 4.659 0 01.719-5.9l10.33-9.814a6.2 6.2 0 0111.15 1.595l8.019 8.961a6.178 6.178 0 012 8.42v10.13h2.661v5.323h1.775v15.967H55V55z" fill="#fff"/></svg>