<svg xmlns="http://www.w3.org/2000/svg" width="58.92" height="59" viewBox="0 0 58.92 59"><path d="M53.64 59V46.357H43.08v11.559A1.078 1.078 0 0142 59h-5.16V41.059H22.2V59h-5.28a1.078 1.078 0 01-1.08-1.084V46.357H5.28V59H3.12V46A5.339 5.339 0 010 41.18V27.453h2.16V41.18a3.183 3.183 0 003.12 3.131v-11.56a5.336 5.336 0 015.279-5.3H15.6a1.078 1.078 0 011.08 1.084V34.8h8.4a1.078 1.078 0 011.08 1.084v3.131h6.36v-3.134A1.078 1.078 0 0133.6 34.8H42v-6.264a1.078 1.078 0 011.08-1.084h5.28a5.336 5.336 0 015.28 5.3v11.56a3.183 3.183 0 003.12-3.131V27.453h2.16v13.606a5.339 5.339 0 01-3.12 4.817V59zM27.36 32.63a3.182 3.182 0 01-3.12-3.13v-4.214a3.182 3.182 0 013.12-3.13v-.121h8.28a3.255 3.255 0 013 2.167h1.2a1.068 1.068 0 01.959.6.9.9 0 010 1.084l-1.92 2.89v.724a3.182 3.182 0 01-3.12 3.13zm12.6-13.73a6.242 6.242 0 116.24 6.381 6.285 6.285 0 01-6.24-6.381zm-33.6 0a6.241 6.241 0 116.24 6.381A6.284 6.284 0 016.36 18.9zm26.159 0v-2.043h2.16V18.9zm-4.2 0v-2.043h2.16V18.9zm-4.081 0v-2.043h2.04V18.9zm-3.6-4.215a.915.915 0 01-.72-.963V10.6A3.208 3.208 0 0116.8 7.345V3.13A3.182 3.182 0 0119.92 0h12.72a3.182 3.182 0 013.12 3.13v4.215a3.182 3.182 0 01-3.119 3.13H24.72l-2.88 3.733a.907.907 0 01-.84.482z" fill="#3a4b89"/></svg>